<?xml version="1.0" encoding="UTF-8"?>
<svg xmlns="http://www.w3.org/2000/svg" viewBox="0 0 1280 720" preserveAspectRatio="xMidYMid slice" role="img" aria-label="AI Agent 智能体">
  <defs>
    <linearGradient id="g_ai_agent_workflow_automation" x1="0" y1="0" x2="1" y2="1">
      <stop offset="0" stop-color="#047857"/>
      <stop offset="1" stop-color="#059669"/>
    </linearGradient>
    <radialGradient id="r_g_ai_agent_workflow_automation" cx="0.8" cy="0.2" r="0.9">
      <stop offset="0" stop-color="#ffffff" stop-opacity="0.18"/>
      <stop offset="1" stop-color="#ffffff" stop-opacity="0"/>
    </radialGradient>
  </defs>
  <rect width="1280" height="720" fill="url(#g_ai_agent_workflow_automation)"/>
  <rect width="1280" height="720" fill="url(#r_g_ai_agent_workflow_automation)"/>
  <!-- 装饰圆点矩阵 -->
  <g fill="#ffffff" opacity="0.08">
    <circle cx="760" cy="460" r="3"/>
    <circle cx="816" cy="460" r="3"/>
    <circle cx="872" cy="460" r="3"/>
    <circle cx="928" cy="460" r="3"/>
    <circle cx="984" cy="460" r="3"/>
    <circle cx="1040" cy="460" r="3"/>
    <circle cx="1096" cy="460" r="3"/>
    <circle cx="1152" cy="460" r="3"/>
    <circle cx="1208" cy="460" r="3"/>
    <circle cx="760" cy="504" r="3"/>
    <circle cx="816" cy="504" r="3"/>
    <circle cx="872" cy="504" r="3"/>
    <circle cx="928" cy="504" r="3"/>
    <circle cx="984" cy="504" r="3"/>
    <circle cx="1040" cy="504" r="3"/>
    <circle cx="1096" cy="504" r="3"/>
    <circle cx="1152" cy="504" r="3"/>
    <circle cx="1208" cy="504" r="3"/>
    <circle cx="760" cy="548" r="3"/>
    <circle cx="816" cy="548" r="3"/>
    <circle cx="872" cy="548" r="3"/>
    <circle cx="928" cy="548" r="3"/>
    <circle cx="984" cy="548" r="3"/>
    <circle cx="1040" cy="548" r="3"/>
    <circle cx="1096" cy="548" r="3"/>
    <circle cx="1152" cy="548" r="3"/>
    <circle cx="1208" cy="548" r="3"/>
    <circle cx="760" cy="592" r="3"/>
    <circle cx="816" cy="592" r="3"/>
    <circle cx="872" cy="592" r="3"/>
    <circle cx="928" cy="592" r="3"/>
    <circle cx="984" cy="592" r="3"/>
    <circle cx="1040" cy="592" r="3"/>
    <circle cx="1096" cy="592" r="3"/>
    <circle cx="1152" cy="592" r="3"/>
    <circle cx="1208" cy="592" r="3"/>
    <circle cx="760" cy="636" r="3"/>
    <circle cx="816" cy="636" r="3"/>
    <circle cx="872" cy="636" r="3"/>
    <circle cx="928" cy="636" r="3"/>
    <circle cx="984" cy="636" r="3"/>
    <circle cx="1040" cy="636" r="3"/>
    <circle cx="1096" cy="636" r="3"/>
    <circle cx="1152" cy="636" r="3"/>
    <circle cx="1208" cy="636" r="3"/>
  </g>
  <!-- 右侧主题图形 -->
  <g transform="translate(900,360)">
    
        <g transform="translate(-70,-80)">
          <rect x="0" y="20" width="140" height="120" rx="26" fill="#fff" opacity="0.95"/>
          <line x1="70" y1="0" x2="70" y2="20" stroke="#fff" stroke-width="4"/>
          <circle cx="70" cy="-6" r="10" fill="#059669"/>
          <circle cx="42" cy="64" r="14" fill="#059669"/>
          <circle cx="98" cy="64" r="14" fill="#059669"/>
          <rect x="40" y="92" width="60" height="10" rx="5" fill="#047857" opacity="0.5"/>
          <rect x="-16" y="56" width="20" height="40" rx="10" fill="#fff" opacity="0.85"/>
          <rect x="136" y="56" width="20" height="40" rx="10" fill="#fff" opacity="0.85"/>
        </g>
  </g>
  <!-- 左侧文字 -->
  <g>
    <text x="96" y="300" font-family="'PingFang SC','Microsoft YaHei',sans-serif" font-size="96" font-weight="800" fill="#ffffff" letter-spacing="2">AI Agent</text>
    <text x="100" y="372" font-family="'PingFang SC','Microsoft YaHei',sans-serif" font-size="34" font-weight="500" fill="#ffffff" opacity="0.85">智能体</text>
    <rect x="100" y="410" width="120" height="5" rx="2.5" fill="#ffffff" opacity="0.9"/>
    <text x="100" y="470" font-family="Arial,sans-serif" font-size="22" font-weight="600" fill="#ffffff" opacity="0.6" letter-spacing="3">AI · TECH GUIDE</text>
  </g>
</svg>
