<?xml version="1.0" encoding="UTF-8"?>
<svg xmlns="http://www.w3.org/2000/svg" viewBox="0 0 1280 720" preserveAspectRatio="xMidYMid slice" role="img" aria-label="小说创作 世界观构建">
  <defs>
    <linearGradient id="g_ai_novel_fiction_writing" x1="0" y1="0" x2="1" y2="1">
      <stop offset="0" stop-color="#a21caf"/>
      <stop offset="1" stop-color="#d946ef"/>
    </linearGradient>
    <radialGradient id="r_g_ai_novel_fiction_writing" cx="0.8" cy="0.2" r="0.9">
      <stop offset="0" stop-color="#ffffff" stop-opacity="0.18"/>
      <stop offset="1" stop-color="#ffffff" stop-opacity="0"/>
    </radialGradient>
  </defs>
  <rect width="1280" height="720" fill="url(#g_ai_novel_fiction_writing)"/>
  <rect width="1280" height="720" fill="url(#r_g_ai_novel_fiction_writing)"/>
  <!-- 装饰圆点矩阵 -->
  <g fill="#ffffff" opacity="0.08">
    <circle cx="760" cy="460" r="3"/>
    <circle cx="816" cy="460" r="3"/>
    <circle cx="872" cy="460" r="3"/>
    <circle cx="928" cy="460" r="3"/>
    <circle cx="984" cy="460" r="3"/>
    <circle cx="1040" cy="460" r="3"/>
    <circle cx="1096" cy="460" r="3"/>
    <circle cx="1152" cy="460" r="3"/>
    <circle cx="1208" cy="460" r="3"/>
    <circle cx="760" cy="504" r="3"/>
    <circle cx="816" cy="504" r="3"/>
    <circle cx="872" cy="504" r="3"/>
    <circle cx="928" cy="504" r="3"/>
    <circle cx="984" cy="504" r="3"/>
    <circle cx="1040" cy="504" r="3"/>
    <circle cx="1096" cy="504" r="3"/>
    <circle cx="1152" cy="504" r="3"/>
    <circle cx="1208" cy="504" r="3"/>
    <circle cx="760" cy="548" r="3"/>
    <circle cx="816" cy="548" r="3"/>
    <circle cx="872" cy="548" r="3"/>
    <circle cx="928" cy="548" r="3"/>
    <circle cx="984" cy="548" r="3"/>
    <circle cx="1040" cy="548" r="3"/>
    <circle cx="1096" cy="548" r="3"/>
    <circle cx="1152" cy="548" r="3"/>
    <circle cx="1208" cy="548" r="3"/>
    <circle cx="760" cy="592" r="3"/>
    <circle cx="816" cy="592" r="3"/>
    <circle cx="872" cy="592" r="3"/>
    <circle cx="928" cy="592" r="3"/>
    <circle cx="984" cy="592" r="3"/>
    <circle cx="1040" cy="592" r="3"/>
    <circle cx="1096" cy="592" r="3"/>
    <circle cx="1152" cy="592" r="3"/>
    <circle cx="1208" cy="592" r="3"/>
    <circle cx="760" cy="636" r="3"/>
    <circle cx="816" cy="636" r="3"/>
    <circle cx="872" cy="636" r="3"/>
    <circle cx="928" cy="636" r="3"/>
    <circle cx="984" cy="636" r="3"/>
    <circle cx="1040" cy="636" r="3"/>
    <circle cx="1096" cy="636" r="3"/>
    <circle cx="1152" cy="636" r="3"/>
    <circle cx="1208" cy="636" r="3"/>
  </g>
  <!-- 右侧主题图形 -->
  <g transform="translate(900,360)">
    
        <g transform="translate(-90,-70)">
          <path d="M0 20 Q90 0 180 20 L180 130 Q90 110 0 130 Z" fill="#fff" opacity="0.95"/>
          <path d="M90 14 L90 124" stroke="#a21caf" stroke-width="2" opacity="0.5"/>
          <rect x="20" y="40" width="50" height="8" rx="4" fill="#d946ef" opacity="0.6"/>
          <rect x="20" y="56" width="50" height="6" rx="3" fill="#a21caf" opacity="0.4"/>
          <rect x="110" y="40" width="50" height="8" rx="4" fill="#d946ef" opacity="0.6"/>
          <rect x="110" y="56" width="50" height="6" rx="3" fill="#a21caf" opacity="0.4"/>
        </g>
  </g>
  <!-- 左侧文字 -->
  <g>
    <text x="96" y="300" font-family="'PingFang SC','Microsoft YaHei',sans-serif" font-size="96" font-weight="800" fill="#ffffff" letter-spacing="2">小说创作</text>
    <text x="100" y="372" font-family="'PingFang SC','Microsoft YaHei',sans-serif" font-size="34" font-weight="500" fill="#ffffff" opacity="0.85">世界观构建</text>
    <rect x="100" y="410" width="120" height="5" rx="2.5" fill="#ffffff" opacity="0.9"/>
    <text x="100" y="470" font-family="Arial,sans-serif" font-size="22" font-weight="600" fill="#ffffff" opacity="0.6" letter-spacing="3">AI · TECH GUIDE</text>
  </g>
</svg>
