<?xml version="1.0" encoding="UTF-8"?>
<svg xmlns="http://www.w3.org/2000/svg" viewBox="0 0 1280 720" preserveAspectRatio="xMidYMid slice" role="img" aria-label="AI 搜索 生成式 SEO">
  <defs>
    <linearGradient id="g_ai_seo_2026_search_generative" x1="0" y1="0" x2="1" y2="1">
      <stop offset="0" stop-color="#14532d"/>
      <stop offset="1" stop-color="#16a34a"/>
    </linearGradient>
    <radialGradient id="r_g_ai_seo_2026_search_generative" cx="0.8" cy="0.2" r="0.9">
      <stop offset="0" stop-color="#ffffff" stop-opacity="0.18"/>
      <stop offset="1" stop-color="#ffffff" stop-opacity="0"/>
    </radialGradient>
  </defs>
  <rect width="1280" height="720" fill="url(#g_ai_seo_2026_search_generative)"/>
  <rect width="1280" height="720" fill="url(#r_g_ai_seo_2026_search_generative)"/>
  <!-- 装饰圆点矩阵 -->
  <g fill="#ffffff" opacity="0.08">
    <circle cx="760" cy="460" r="3"/>
    <circle cx="816" cy="460" r="3"/>
    <circle cx="872" cy="460" r="3"/>
    <circle cx="928" cy="460" r="3"/>
    <circle cx="984" cy="460" r="3"/>
    <circle cx="1040" cy="460" r="3"/>
    <circle cx="1096" cy="460" r="3"/>
    <circle cx="1152" cy="460" r="3"/>
    <circle cx="1208" cy="460" r="3"/>
    <circle cx="760" cy="504" r="3"/>
    <circle cx="816" cy="504" r="3"/>
    <circle cx="872" cy="504" r="3"/>
    <circle cx="928" cy="504" r="3"/>
    <circle cx="984" cy="504" r="3"/>
    <circle cx="1040" cy="504" r="3"/>
    <circle cx="1096" cy="504" r="3"/>
    <circle cx="1152" cy="504" r="3"/>
    <circle cx="1208" cy="504" r="3"/>
    <circle cx="760" cy="548" r="3"/>
    <circle cx="816" cy="548" r="3"/>
    <circle cx="872" cy="548" r="3"/>
    <circle cx="928" cy="548" r="3"/>
    <circle cx="984" cy="548" r="3"/>
    <circle cx="1040" cy="548" r="3"/>
    <circle cx="1096" cy="548" r="3"/>
    <circle cx="1152" cy="548" r="3"/>
    <circle cx="1208" cy="548" r="3"/>
    <circle cx="760" cy="592" r="3"/>
    <circle cx="816" cy="592" r="3"/>
    <circle cx="872" cy="592" r="3"/>
    <circle cx="928" cy="592" r="3"/>
    <circle cx="984" cy="592" r="3"/>
    <circle cx="1040" cy="592" r="3"/>
    <circle cx="1096" cy="592" r="3"/>
    <circle cx="1152" cy="592" r="3"/>
    <circle cx="1208" cy="592" r="3"/>
    <circle cx="760" cy="636" r="3"/>
    <circle cx="816" cy="636" r="3"/>
    <circle cx="872" cy="636" r="3"/>
    <circle cx="928" cy="636" r="3"/>
    <circle cx="984" cy="636" r="3"/>
    <circle cx="1040" cy="636" r="3"/>
    <circle cx="1096" cy="636" r="3"/>
    <circle cx="1152" cy="636" r="3"/>
    <circle cx="1208" cy="636" r="3"/>
  </g>
  <!-- 右侧主题图形 -->
  <g transform="translate(900,360)">
    
        <g transform="translate(-30,-30)">
          <circle cx="0" cy="0" r="70" fill="none" stroke="#fff" stroke-width="14" opacity="0.95"/>
          <line x1="50" y1="50" x2="100" y2="100" stroke="#fff" stroke-width="14" stroke-linecap="round" opacity="0.95"/>
          <circle cx="0" cy="0" r="34" fill="#fff" opacity="0.25"/>
          <rect x="-28" y="-6" width="44" height="10" rx="5" fill="#fff" opacity="0.7"/>
        </g>
  </g>
  <!-- 左侧文字 -->
  <g>
    <text x="96" y="300" font-family="'PingFang SC','Microsoft YaHei',sans-serif" font-size="96" font-weight="800" fill="#ffffff" letter-spacing="2">AI 搜索</text>
    <text x="100" y="372" font-family="'PingFang SC','Microsoft YaHei',sans-serif" font-size="34" font-weight="500" fill="#ffffff" opacity="0.85">生成式 SEO</text>
    <rect x="100" y="410" width="120" height="5" rx="2.5" fill="#ffffff" opacity="0.9"/>
    <text x="100" y="470" font-family="Arial,sans-serif" font-size="22" font-weight="600" fill="#ffffff" opacity="0.6" letter-spacing="3">AI · TECH GUIDE</text>
  </g>
</svg>
