<?xml version="1.0" encoding="UTF-8"?>
<svg xmlns="http://www.w3.org/2000/svg" viewBox="0 0 1280 960" preserveAspectRatio="xMidYMid slice" role="img" aria-label="AI 咨询实战教程">
  <defs>
    <linearGradient id="hg" x1="0" y1="0" x2="1" y2="1">
      <stop offset="0" stop-color="#0d1b2a"/>
      <stop offset="0.55" stop-color="#14253d"/>
      <stop offset="1" stop-color="#1d52d6"/>
    </linearGradient>
    <radialGradient id="hr" cx="0.75" cy="0.2" r="0.85">
      <stop offset="0" stop-color="#6aa1ff" stop-opacity="0.45"/>
      <stop offset="1" stop-color="#6aa1ff" stop-opacity="0"/>
    </radialGradient>
  </defs>
  <rect width="1280" height="960" fill="url(#hg)"/>
  <rect width="1280" height="960" fill="url(#hr)"/>
  <!-- 中心光晕 -->
  <circle cx="900" cy="380" r="260" fill="#2f6df6" opacity="0.25"/>
  <circle cx="900" cy="380" r="140" fill="#6aa1ff" opacity="0.3"/>
  <!-- 神经网络节点 -->
  <g stroke="#6aa1ff" stroke-width="2" opacity="0.55" fill="none">
  <line x1="640" y1="260" x2="820" y2="220"/>
  <line x1="640" y1="260" x2="820" y2="320"/>
  <line x1="640" y1="260" x2="820" y2="420"/>
  <line x1="640" y1="260" x2="820" y2="520"/>
  <line x1="640" y1="260" x2="820" y2="620"/>
  <line x1="640" y1="340" x2="820" y2="220"/>
  <line x1="640" y1="340" x2="820" y2="320"/>
  <line x1="640" y1="340" x2="820" y2="420"/>
  <line x1="640" y1="340" x2="820" y2="520"/>
  <line x1="640" y1="340" x2="820" y2="620"/>
  <line x1="640" y1="420" x2="820" y2="220"/>
  <line x1="640" y1="420" x2="820" y2="320"/>
  <line x1="640" y1="420" x2="820" y2="420"/>
  <line x1="640" y1="420" x2="820" y2="520"/>
  <line x1="640" y1="420" x2="820" y2="620"/>
  <line x1="640" y1="500" x2="820" y2="220"/>
  <line x1="640" y1="500" x2="820" y2="320"/>
  <line x1="640" y1="500" x2="820" y2="420"/>
  <line x1="640" y1="500" x2="820" y2="520"/>
  <line x1="640" y1="500" x2="820" y2="620"/>
  <line x1="820" y1="220" x2="1000" y2="300"/>
  <line x1="820" y1="220" x2="1000" y2="380"/>
  <line x1="820" y1="220" x2="1000" y2="460"/>
  <line x1="820" y1="320" x2="1000" y2="300"/>
  <line x1="820" y1="320" x2="1000" y2="380"/>
  <line x1="820" y1="320" x2="1000" y2="460"/>
  <line x1="820" y1="420" x2="1000" y2="300"/>
  <line x1="820" y1="420" x2="1000" y2="380"/>
  <line x1="820" y1="420" x2="1000" y2="460"/>
  <line x1="820" y1="520" x2="1000" y2="300"/>
  <line x1="820" y1="520" x2="1000" y2="380"/>
  <line x1="820" y1="520" x2="1000" y2="460"/>
  <line x1="820" y1="620" x2="1000" y2="300"/>
  <line x1="820" y1="620" x2="1000" y2="380"/>
  <line x1="820" y1="620" x2="1000" y2="460"/>
  </g>
  <g fill="#ffffff">
    <circle cx="640" cy="260" r="8" opacity="0.95"/>
    <circle cx="640" cy="260" r="18" fill="none" stroke="#ffffff" stroke-width="1.5" opacity="0.3"/>
    <circle cx="640" cy="340" r="8" opacity="0.95"/>
    <circle cx="640" cy="340" r="18" fill="none" stroke="#ffffff" stroke-width="1.5" opacity="0.3"/>
    <circle cx="640" cy="420" r="8" opacity="0.95"/>
    <circle cx="640" cy="420" r="18" fill="none" stroke="#ffffff" stroke-width="1.5" opacity="0.3"/>
    <circle cx="640" cy="500" r="8" opacity="0.95"/>
    <circle cx="640" cy="500" r="18" fill="none" stroke="#ffffff" stroke-width="1.5" opacity="0.3"/>
    <circle cx="820" cy="220" r="8" opacity="0.95"/>
    <circle cx="820" cy="220" r="18" fill="none" stroke="#ffffff" stroke-width="1.5" opacity="0.3"/>
    <circle cx="820" cy="320" r="8" opacity="0.95"/>
    <circle cx="820" cy="320" r="18" fill="none" stroke="#ffffff" stroke-width="1.5" opacity="0.3"/>
    <circle cx="820" cy="420" r="8" opacity="0.95"/>
    <circle cx="820" cy="420" r="18" fill="none" stroke="#ffffff" stroke-width="1.5" opacity="0.3"/>
    <circle cx="820" cy="520" r="8" opacity="0.95"/>
    <circle cx="820" cy="520" r="18" fill="none" stroke="#ffffff" stroke-width="1.5" opacity="0.3"/>
    <circle cx="820" cy="620" r="8" opacity="0.95"/>
    <circle cx="820" cy="620" r="18" fill="none" stroke="#ffffff" stroke-width="1.5" opacity="0.3"/>
    <circle cx="1000" cy="300" r="8" opacity="0.95"/>
    <circle cx="1000" cy="300" r="18" fill="none" stroke="#ffffff" stroke-width="1.5" opacity="0.3"/>
    <circle cx="1000" cy="380" r="8" opacity="0.95"/>
    <circle cx="1000" cy="380" r="18" fill="none" stroke="#ffffff" stroke-width="1.5" opacity="0.3"/>
    <circle cx="1000" cy="460" r="8" opacity="0.95"/>
    <circle cx="1000" cy="460" r="18" fill="none" stroke="#ffffff" stroke-width="1.5" opacity="0.3"/>
  </g>
  <!-- 左下数据条 -->
  <g transform="translate(120,720)">
    <rect x="0" y="80" width="28" height="120" rx="6" fill="#6aa1ff" opacity="0.9"/>
    <rect x="40" y="110" width="28" height="90" rx="6" fill="#ffffff" opacity="0.55"/>
    <rect x="80" y="40" width="28" height="160" rx="6" fill="#6aa1ff" opacity="0.75"/>
    <rect x="120" y="130" width="28" height="70" rx="6" fill="#ffffff" opacity="0.4"/>
    <rect x="160" y="60" width="28" height="140" rx="6" fill="#2f6df6" opacity="1"/>
  </g>
  <!-- 标题 -->
  <g>
    <rect x="120" y="300" width="90" height="6" rx="3" fill="#6aa1ff"/>
    <text x="120" y="380" font-family="'PingFang SC','Microsoft YaHei',sans-serif" font-size="84" font-weight="800" fill="#ffffff">AI 实战</text>
    <text x="120" y="470" font-family="'PingFang SC','Microsoft YaHei',sans-serif" font-size="84" font-weight="800" fill="#6aa1ff">洞察 · 落地</text>
    <text x="124" y="540" font-family="'PingFang SC',sans-serif" font-size="28" font-weight="500" fill="#ffffff" opacity="0.75">前沿人工智能方法论的实战指南</text>
  </g>
</svg>
