<?xml version="1.0" encoding="UTF-8"?>
<svg xmlns="http://www.w3.org/2000/svg" viewBox="0 0 1280 720" preserveAspectRatio="xMidYMid slice" role="img" aria-label="可灵 国产 AI 视频">
  <defs>
    <linearGradient id="g_kling_ai_video_vs_sora" x1="0" y1="0" x2="1" y2="1">
      <stop offset="0" stop-color="#991b1b"/>
      <stop offset="1" stop-color="#dc2626"/>
    </linearGradient>
    <radialGradient id="r_g_kling_ai_video_vs_sora" cx="0.8" cy="0.2" r="0.9">
      <stop offset="0" stop-color="#ffffff" stop-opacity="0.18"/>
      <stop offset="1" stop-color="#ffffff" stop-opacity="0"/>
    </radialGradient>
  </defs>
  <rect width="1280" height="720" fill="url(#g_kling_ai_video_vs_sora)"/>
  <rect width="1280" height="720" fill="url(#r_g_kling_ai_video_vs_sora)"/>
  <!-- 装饰圆点矩阵 -->
  <g fill="#ffffff" opacity="0.08">
    <circle cx="760" cy="460" r="3"/>
    <circle cx="816" cy="460" r="3"/>
    <circle cx="872" cy="460" r="3"/>
    <circle cx="928" cy="460" r="3"/>
    <circle cx="984" cy="460" r="3"/>
    <circle cx="1040" cy="460" r="3"/>
    <circle cx="1096" cy="460" r="3"/>
    <circle cx="1152" cy="460" r="3"/>
    <circle cx="1208" cy="460" r="3"/>
    <circle cx="760" cy="504" r="3"/>
    <circle cx="816" cy="504" r="3"/>
    <circle cx="872" cy="504" r="3"/>
    <circle cx="928" cy="504" r="3"/>
    <circle cx="984" cy="504" r="3"/>
    <circle cx="1040" cy="504" r="3"/>
    <circle cx="1096" cy="504" r="3"/>
    <circle cx="1152" cy="504" r="3"/>
    <circle cx="1208" cy="504" r="3"/>
    <circle cx="760" cy="548" r="3"/>
    <circle cx="816" cy="548" r="3"/>
    <circle cx="872" cy="548" r="3"/>
    <circle cx="928" cy="548" r="3"/>
    <circle cx="984" cy="548" r="3"/>
    <circle cx="1040" cy="548" r="3"/>
    <circle cx="1096" cy="548" r="3"/>
    <circle cx="1152" cy="548" r="3"/>
    <circle cx="1208" cy="548" r="3"/>
    <circle cx="760" cy="592" r="3"/>
    <circle cx="816" cy="592" r="3"/>
    <circle cx="872" cy="592" r="3"/>
    <circle cx="928" cy="592" r="3"/>
    <circle cx="984" cy="592" r="3"/>
    <circle cx="1040" cy="592" r="3"/>
    <circle cx="1096" cy="592" r="3"/>
    <circle cx="1152" cy="592" r="3"/>
    <circle cx="1208" cy="592" r="3"/>
    <circle cx="760" cy="636" r="3"/>
    <circle cx="816" cy="636" r="3"/>
    <circle cx="872" cy="636" r="3"/>
    <circle cx="928" cy="636" r="3"/>
    <circle cx="984" cy="636" r="3"/>
    <circle cx="1040" cy="636" r="3"/>
    <circle cx="1096" cy="636" r="3"/>
    <circle cx="1152" cy="636" r="3"/>
    <circle cx="1208" cy="636" r="3"/>
  </g>
  <!-- 右侧主题图形 -->
  <g transform="translate(900,360)">
    
        <g transform="translate(-110,-70)">
          <rect x="0" y="0" width="220" height="140" rx="16" fill="#0f172a" opacity="0.92"/>
          <polygon points="95,40 95,100 145,70" fill="#fff"/>
          <rect x="0" y="0" width="220" height="20" fill="#fff" opacity="0.15"/>
          <rect x="0" y="120" width="220" height="20" fill="#fff" opacity="0.15"/>
          <circle cx="14" cy="10" r="3" fill="#fff" opacity="0.5"/><circle cx="30" cy="10" r="3" fill="#fff" opacity="0.5"/>
          <circle cx="14" cy="130" r="3" fill="#fff" opacity="0.5"/><circle cx="30" cy="130" r="3" fill="#fff" opacity="0.5"/>
        </g>
  </g>
  <!-- 左侧文字 -->
  <g>
    <text x="96" y="300" font-family="'PingFang SC','Microsoft YaHei',sans-serif" font-size="96" font-weight="800" fill="#ffffff" letter-spacing="2">可灵</text>
    <text x="100" y="372" font-family="'PingFang SC','Microsoft YaHei',sans-serif" font-size="34" font-weight="500" fill="#ffffff" opacity="0.85">国产 AI 视频</text>
    <rect x="100" y="410" width="120" height="5" rx="2.5" fill="#ffffff" opacity="0.9"/>
    <text x="100" y="470" font-family="Arial,sans-serif" font-size="22" font-weight="600" fill="#ffffff" opacity="0.6" letter-spacing="3">AI · TECH GUIDE</text>
  </g>
</svg>
